<mxfile host="app.diagrams.net" agent="Mozilla/5.0 (Windows NT 10.0; Win64; x64; rv:130.0) Gecko/20100101 Firefox/130.0" version="24.7.16">
  <diagram id="C5RBs43oDa-KdzZeNtuy" name="Page-1">
    <mxGraphModel dx="3179" dy="976" grid="1" gridSize="10" guides="1" tooltips="1" connect="1" arrows="1" fold="1" page="1" pageScale="1" pageWidth="827" pageHeight="1169" math="0" shadow="0">
      <root>
        <mxCell id="WIyWlLk6GJQsqaUBKTNV-0" />
        <mxCell id="WIyWlLk6GJQsqaUBKTNV-1" parent="WIyWlLk6GJQsqaUBKTNV-0" />
        <mxCell id="PkTfsMFI_k0Dj1ArA2bd-17" style="edgeStyle=orthogonalEdgeStyle;rounded=0;orthogonalLoop=1;jettySize=auto;html=1;exitX=0;exitY=1;exitDx=0;exitDy=0;" edge="1" parent="WIyWlLk6GJQsqaUBKTNV-1" source="PkTfsMFI_k0Dj1ArA2bd-0">
          <mxGeometry relative="1" as="geometry">
            <mxPoint x="-720" y="520" as="targetPoint" />
          </mxGeometry>
        </mxCell>
        <mxCell id="PkTfsMFI_k0Dj1ArA2bd-0" value="fronted service" style="whiteSpace=wrap;html=1;aspect=fixed;" vertex="1" parent="WIyWlLk6GJQsqaUBKTNV-1">
          <mxGeometry x="-720" y="40" width="470" height="470" as="geometry" />
        </mxCell>
        <mxCell id="PkTfsMFI_k0Dj1ArA2bd-6" value="backend server" style="whiteSpace=wrap;html=1;aspect=fixed;" vertex="1" parent="WIyWlLk6GJQsqaUBKTNV-1">
          <mxGeometry x="-750" y="585" width="530" height="530" as="geometry" />
        </mxCell>
        <mxCell id="PkTfsMFI_k0Dj1ArA2bd-9" value="database" style="whiteSpace=wrap;html=1;aspect=fixed;" vertex="1" parent="WIyWlLk6GJQsqaUBKTNV-1">
          <mxGeometry x="120" y="40" width="480" height="480" as="geometry" />
        </mxCell>
        <mxCell id="PkTfsMFI_k0Dj1ArA2bd-10" value="lagunage (Open AI)" style="whiteSpace=wrap;html=1;aspect=fixed;" vertex="1" parent="WIyWlLk6GJQsqaUBKTNV-1">
          <mxGeometry x="910" y="620" width="480" height="480" as="geometry" />
        </mxCell>
        <mxCell id="PkTfsMFI_k0Dj1ArA2bd-11" value="" style="endArrow=classic;startArrow=classic;html=1;rounded=0;exitX=0.5;exitY=0;exitDx=0;exitDy=0;entryX=0.5;entryY=1;entryDx=0;entryDy=0;" edge="1" parent="WIyWlLk6GJQsqaUBKTNV-1" source="PkTfsMFI_k0Dj1ArA2bd-6" target="PkTfsMFI_k0Dj1ArA2bd-0">
          <mxGeometry width="50" height="50" relative="1" as="geometry">
            <mxPoint x="-80" y="610" as="sourcePoint" />
            <mxPoint x="-240" y="530" as="targetPoint" />
            <Array as="points" />
          </mxGeometry>
        </mxCell>
        <mxCell id="PkTfsMFI_k0Dj1ArA2bd-15" value="" style="endArrow=classic;startArrow=classic;html=1;rounded=0;entryX=-0.001;entryY=0.457;entryDx=0;entryDy=0;entryPerimeter=0;" edge="1" parent="WIyWlLk6GJQsqaUBKTNV-1" target="PkTfsMFI_k0Dj1ArA2bd-10">
          <mxGeometry width="50" height="50" relative="1" as="geometry">
            <mxPoint x="-220" y="840" as="sourcePoint" />
            <mxPoint x="-170" y="790" as="targetPoint" />
          </mxGeometry>
        </mxCell>
        <mxCell id="PkTfsMFI_k0Dj1ArA2bd-16" value="" style="endArrow=classic;html=1;rounded=0;exitX=1.011;exitY=0.477;exitDx=0;exitDy=0;exitPerimeter=0;entryX=0;entryY=0.5;entryDx=0;entryDy=0;" edge="1" parent="WIyWlLk6GJQsqaUBKTNV-1" source="PkTfsMFI_k0Dj1ArA2bd-6" target="PkTfsMFI_k0Dj1ArA2bd-9">
          <mxGeometry width="50" height="50" relative="1" as="geometry">
            <mxPoint x="-80" y="610" as="sourcePoint" />
            <mxPoint x="-30" y="560" as="targetPoint" />
            <Array as="points">
              <mxPoint x="-50" y="590" />
            </Array>
          </mxGeometry>
        </mxCell>
        <mxCell id="PkTfsMFI_k0Dj1ArA2bd-19" value="&lt;b&gt;Idea for actions available to user&lt;/b&gt;&lt;div&gt;&lt;br&gt;&lt;/div&gt;&lt;ol&gt;&lt;li&gt;create a account / login&lt;/li&gt;&lt;li&gt;upload resume / cv &lt;br&gt;&lt;/li&gt;&lt;li&gt;&amp;nbsp;if no resume present or user opts out&lt;br&gt;&lt;/li&gt;&lt;li&gt;then&lt;br&gt;&lt;/li&gt;&lt;li&gt;input work history / personal data manually&lt;br&gt;&lt;/li&gt;&lt;li&gt;if resume exists and button pressed then route user to &lt;br&gt;&lt;/li&gt;&lt;li&gt;edit resume screen&lt;br&gt;&lt;/li&gt;&lt;li&gt;after user completes previous steps take user to&lt;br&gt;page where bqueries backed for jobs on job sites or do manual input of job description that they want to cater their resume to&lt;/li&gt;&lt;li&gt;manual search of jobs (job you&#39;re looking &lt;br&gt;for) user is looking for, does query to job site apis in order to &lt;br&gt;retrieve available jobs based on ai&lt;/li&gt;&lt;/ol&gt;&lt;div&gt;&lt;br&gt;&lt;/div&gt;&lt;div&gt;&lt;br&gt;&lt;/div&gt;" style="ellipse;shape=cloud;whiteSpace=wrap;html=1;fillColor=#dae8fc;strokeColor=#6c8ebf;" vertex="1" parent="WIyWlLk6GJQsqaUBKTNV-1">
          <mxGeometry x="1430" y="190" width="1550" height="840" as="geometry" />
        </mxCell>
      </root>
    </mxGraphModel>
  </diagram>
</mxfile>
